<svg xmlns="http://www.w3.org/2000/svg" xmlns:xlink="http://www.w3.org/1999/xlink" width="1920" zoomAndPan="magnify" viewBox="0 0 1440 809.999993" height="1080" preserveAspectRatio="xMidYMid meet" version="1.0"><defs><g/></defs><g fill="#131313" fill-opacity="1"><g transform="translate(0.00000622222, 495.763764)"><g><path d="M 15.953125 54.34375 L 78.484375 23.71875 C 89.984375 42.695312 109.96875 52.1875 138.4375 52.1875 C 151.664062 52.1875 163.957031 47.941406 175.3125 39.453125 C 186.664062 30.972656 192.34375 17.96875 192.34375 0.4375 L 192.34375 -15.953125 C 178.832031 -1.003906 154.679688 6.46875 119.890625 6.46875 C 87.972656 6.46875 61.664062 -4.8125 40.96875 -27.375 C 20.269531 -49.945312 9.921875 -77.617188 9.921875 -110.390625 C 9.921875 -143.171875 20.269531 -170.914062 40.96875 -193.625 C 61.664062 -216.34375 87.972656 -227.703125 119.890625 -227.703125 C 148.359375 -227.703125 172.078125 -218.9375 191.046875 -201.40625 L 192.34375 -201.40625 L 192.34375 -221.234375 L 268.671875 -221.234375 L 268.671875 6.03125 C 268.671875 41.976562 256.738281 69.722656 232.875 89.265625 C 209.019531 108.816406 177.539062 118.59375 138.4375 118.59375 C 75.1875 118.59375 34.359375 97.175781 15.953125 54.34375 Z M 105.875 -147.921875 C 95.957031 -138.148438 91 -125.644531 91 -110.40625 C 91 -95.164062 95.738281 -82.726562 105.21875 -73.09375 C 114.707031 -63.46875 127.21875 -58.65625 142.75 -58.65625 C 157.695312 -58.65625 169.984375 -63.539062 179.609375 -73.3125 C 189.242188 -83.09375 194.0625 -95.457031 194.0625 -110.40625 C 194.0625 -125.644531 189.101562 -138.148438 179.1875 -147.921875 C 169.269531 -157.703125 157.125 -162.59375 142.75 -162.59375 C 128.082031 -162.59375 115.789062 -157.703125 105.875 -147.921875 Z M 105.875 -147.921875 "/></g></g></g><g fill="#131313" fill-opacity="1"><g transform="translate(246.248366, 495.763764)"><g><path d="M 46.796875 -26.296875 C 22.210938 -48.148438 9.921875 -76.179688 9.921875 -110.390625 C 9.921875 -144.609375 22.710938 -172.710938 48.296875 -194.703125 C 73.890625 -216.703125 105.519531 -227.703125 143.1875 -227.703125 C 180.269531 -227.703125 211.53125 -216.632812 236.96875 -194.5 C 262.414062 -172.363281 275.140625 -144.332031 275.140625 -110.40625 C 275.140625 -76.476562 262.703125 -48.515625 237.828125 -26.515625 C 212.960938 -4.523438 181.414062 6.46875 143.1875 6.46875 C 103.507812 6.46875 71.378906 -4.453125 46.796875 -26.296875 Z M 105.875 -147.921875 C 95.957031 -138.148438 91 -125.644531 91 -110.40625 C 91 -95.164062 95.738281 -82.726562 105.21875 -73.09375 C 114.707031 -63.46875 127.21875 -58.65625 142.75 -58.65625 C 157.695312 -58.65625 169.984375 -63.539062 179.609375 -73.3125 C 189.242188 -83.09375 194.0625 -95.457031 194.0625 -110.40625 C 194.0625 -125.644531 189.101562 -138.148438 179.1875 -147.921875 C 169.269531 -157.703125 157.125 -162.59375 142.75 -162.59375 C 128.082031 -162.59375 115.789062 -157.703125 105.875 -147.921875 Z M 105.875 -147.921875 "/></g></g></g><g fill="#131313" fill-opacity="1"><g transform="translate(483.008959, 495.763764)"><g><path d="M 46.796875 -26.296875 C 22.210938 -48.148438 9.921875 -76.179688 9.921875 -110.390625 C 9.921875 -144.609375 22.710938 -172.710938 48.296875 -194.703125 C 73.890625 -216.703125 105.519531 -227.703125 143.1875 -227.703125 C 180.269531 -227.703125 211.53125 -216.632812 236.96875 -194.5 C 262.414062 -172.363281 275.140625 -144.332031 275.140625 -110.40625 C 275.140625 -76.476562 262.703125 -48.515625 237.828125 -26.515625 C 212.960938 -4.523438 181.414062 6.46875 143.1875 6.46875 C 103.507812 6.46875 71.378906 -4.453125 46.796875 -26.296875 Z M 105.875 -147.921875 C 95.957031 -138.148438 91 -125.644531 91 -110.40625 C 91 -95.164062 95.738281 -82.726562 105.21875 -73.09375 C 114.707031 -63.46875 127.21875 -58.65625 142.75 -58.65625 C 157.695312 -58.65625 169.984375 -63.539062 179.609375 -73.3125 C 189.242188 -83.09375 194.0625 -95.457031 194.0625 -110.40625 C 194.0625 -125.644531 189.101562 -138.148438 179.1875 -147.921875 C 169.269531 -157.703125 157.125 -162.59375 142.75 -162.59375 C 128.082031 -162.59375 115.789062 -157.703125 105.875 -147.921875 Z M 105.875 -147.921875 "/></g></g></g><g fill="#131313" fill-opacity="1"><g transform="translate(719.769553, 495.763764)"><g><path d="M 253.578125 -193.84375 C 274.285156 -171.28125 284.640625 -143.609375 284.640625 -110.828125 C 284.640625 -78.054688 274.285156 -50.3125 253.578125 -27.59375 C 232.878906 -4.882812 206.570312 6.46875 174.65625 6.46875 C 145.332031 6.46875 121.179688 -2.726562 102.203125 -21.125 L 102.203125 112.125 L 25.875 112.125 L 25.875 -221.234375 L 101.34375 -221.234375 L 101.34375 -196.21875 L 102.203125 -196.21875 C 121.179688 -217.207031 145.332031 -227.703125 174.65625 -227.703125 C 206.570312 -227.703125 232.878906 -216.414062 253.578125 -193.84375 Z M 188.671875 -73.3125 C 198.597656 -83.09375 203.5625 -95.597656 203.5625 -110.828125 C 203.5625 -126.066406 198.816406 -138.503906 189.328125 -148.140625 C 179.835938 -157.773438 167.332031 -162.59375 151.8125 -162.59375 C 136.851562 -162.59375 124.554688 -157.703125 114.921875 -147.921875 C 105.296875 -138.148438 100.484375 -125.785156 100.484375 -110.828125 C 100.484375 -95.597656 105.441406 -83.09375 115.359375 -73.3125 C 125.285156 -63.539062 137.4375 -58.65625 151.8125 -58.65625 C 166.46875 -58.65625 178.753906 -63.539062 188.671875 -73.3125 Z M 188.671875 -73.3125 "/></g></g></g><g fill="#131313" fill-opacity="1"><g transform="translate(966.017912, 495.763764)"><g><path d="M 122.046875 -227.703125 C 134.703125 -227.703125 147.207031 -226.265625 159.5625 -223.390625 C 171.925781 -220.515625 181.128906 -217.640625 187.171875 -214.765625 L 196.21875 -210.453125 L 171.21875 -160.4375 C 153.96875 -169.632812 137.578125 -174.234375 122.046875 -174.234375 C 113.421875 -174.234375 107.3125 -173.296875 103.71875 -171.421875 C 100.125 -169.554688 98.328125 -166.035156 98.328125 -160.859375 C 98.328125 -159.710938 98.46875 -158.5625 98.75 -157.40625 C 99.039062 -156.257812 99.617188 -155.179688 100.484375 -154.171875 C 101.347656 -153.171875 102.140625 -152.3125 102.859375 -151.59375 C 103.578125 -150.875 104.796875 -150.082031 106.515625 -149.21875 C 108.242188 -148.351562 109.609375 -147.703125 110.609375 -147.265625 C 111.617188 -146.835938 113.273438 -146.191406 115.578125 -145.328125 C 117.878906 -144.472656 119.601562 -143.828125 120.75 -143.390625 C 121.90625 -142.960938 123.847656 -142.316406 126.578125 -141.453125 C 129.304688 -140.585938 131.390625 -140.015625 132.828125 -139.734375 C 141.742188 -137.140625 149.503906 -134.257812 156.109375 -131.09375 C 162.722656 -127.9375 169.695312 -123.625 177.03125 -118.15625 C 184.363281 -112.695312 190.039062 -105.796875 194.0625 -97.453125 C 198.09375 -89.117188 200.109375 -79.632812 200.109375 -69 C 200.109375 -18.6875 165.175781 6.46875 95.3125 6.46875 C 79.5 6.46875 64.472656 4.023438 50.234375 -0.859375 C 36.003906 -5.742188 25.726562 -10.632812 19.40625 -15.53125 L 9.921875 -23.28125 L 40.96875 -75.46875 C 43.269531 -73.457031 46.289062 -71.085938 50.03125 -68.359375 C 53.769531 -65.628906 60.523438 -61.890625 70.296875 -57.140625 C 80.066406 -52.398438 88.546875 -50.03125 95.734375 -50.03125 C 111.546875 -50.03125 119.453125 -55.347656 119.453125 -65.984375 C 119.453125 -70.867188 117.441406 -74.675781 113.421875 -77.40625 C 109.398438 -80.144531 102.570312 -83.238281 92.9375 -86.6875 C 83.300781 -90.132812 75.753906 -93.296875 70.296875 -96.171875 C 56.492188 -103.359375 45.566406 -111.476562 37.515625 -120.53125 C 29.460938 -129.59375 25.4375 -141.597656 25.4375 -156.546875 C 25.4375 -178.972656 34.132812 -196.4375 51.53125 -208.9375 C 68.925781 -221.445312 92.429688 -227.703125 122.046875 -227.703125 Z M 122.046875 -227.703125 "/></g></g></g><g fill="#131313" fill-opacity="1"><g transform="translate(1129.895504, 495.763764)"><g><path d="M 122.046875 -227.703125 C 134.703125 -227.703125 147.207031 -226.265625 159.5625 -223.390625 C 171.925781 -220.515625 181.128906 -217.640625 187.171875 -214.765625 L 196.21875 -210.453125 L 171.21875 -160.4375 C 153.96875 -169.632812 137.578125 -174.234375 122.046875 -174.234375 C 113.421875 -174.234375 107.3125 -173.296875 103.71875 -171.421875 C 100.125 -169.554688 98.328125 -166.035156 98.328125 -160.859375 C 98.328125 -159.710938 98.46875 -158.5625 98.75 -157.40625 C 99.039062 -156.257812 99.617188 -155.179688 100.484375 -154.171875 C 101.347656 -153.171875 102.140625 -152.3125 102.859375 -151.59375 C 103.578125 -150.875 104.796875 -150.082031 106.515625 -149.21875 C 108.242188 -148.351562 109.609375 -147.703125 110.609375 -147.265625 C 111.617188 -146.835938 113.273438 -146.191406 115.578125 -145.328125 C 117.878906 -144.472656 119.601562 -143.828125 120.75 -143.390625 C 121.90625 -142.960938 123.847656 -142.316406 126.578125 -141.453125 C 129.304688 -140.585938 131.390625 -140.015625 132.828125 -139.734375 C 141.742188 -137.140625 149.503906 -134.257812 156.109375 -131.09375 C 162.722656 -127.9375 169.695312 -123.625 177.03125 -118.15625 C 184.363281 -112.695312 190.039062 -105.796875 194.0625 -97.453125 C 198.09375 -89.117188 200.109375 -79.632812 200.109375 -69 C 200.109375 -18.6875 165.175781 6.46875 95.3125 6.46875 C 79.5 6.46875 64.472656 4.023438 50.234375 -0.859375 C 36.003906 -5.742188 25.726562 -10.632812 19.40625 -15.53125 L 9.921875 -23.28125 L 40.96875 -75.46875 C 43.269531 -73.457031 46.289062 -71.085938 50.03125 -68.359375 C 53.769531 -65.628906 60.523438 -61.890625 70.296875 -57.140625 C 80.066406 -52.398438 88.546875 -50.03125 95.734375 -50.03125 C 111.546875 -50.03125 119.453125 -55.347656 119.453125 -65.984375 C 119.453125 -70.867188 117.441406 -74.675781 113.421875 -77.40625 C 109.398438 -80.144531 102.570312 -83.238281 92.9375 -86.6875 C 83.300781 -90.132812 75.753906 -93.296875 70.296875 -96.171875 C 56.492188 -103.359375 45.566406 -111.476562 37.515625 -120.53125 C 29.460938 -129.59375 25.4375 -141.597656 25.4375 -156.546875 C 25.4375 -178.972656 34.132812 -196.4375 51.53125 -208.9375 C 68.925781 -221.445312 92.429688 -227.703125 122.046875 -227.703125 Z M 122.046875 -227.703125 "/></g></g></g><g fill="#ffb0ee" fill-opacity="1"><g transform="translate(1293.786209, 495.763764)"><g><path d="M 75.046875 -92.296875 C 88.835938 -92.296875 100.550781 -87.476562 110.1875 -77.84375 C 119.820312 -68.207031 124.640625 -56.488281 124.640625 -42.6875 C 124.640625 -29.175781 119.820312 -17.601562 110.1875 -7.96875 C 100.550781 1.65625 88.835938 6.46875 75.046875 6.46875 C 61.523438 6.46875 49.945312 1.65625 40.3125 -7.96875 C 30.6875 -17.601562 25.875 -29.175781 25.875 -42.6875 C 25.875 -56.488281 30.6875 -68.207031 40.3125 -77.84375 C 49.945312 -87.476562 61.523438 -92.296875 75.046875 -92.296875 Z M 75.046875 -92.296875 "/></g></g></g></svg>